<svg id="Layer_1" enable-background="new 0 0 512 512" height="512" viewBox="0 0 512 512" width="512" xmlns="http://www.w3.org/2000/svg" xmlns:xlink="http://www.w3.org/1999/xlink"><linearGradient id="SVGID_1_" gradientUnits="userSpaceOnUse" x1="0" x2="512" y1="256" y2="256"><stop offset="0" stop-color="#9dd6fc"/><stop offset="1" stop-color="#d17ff7"/></linearGradient><path d="m256 386c-71.683 0-130-58.317-130-130 7.14-172.463 252.886-172.413 260 .001 0 71.682-58.317 129.999-130 129.999zm0-220c-49.626 0-90 40.374-90 90 4.944 119.397 175.074 119.362 180-.001 0-49.625-40.374-89.999-90-89.999zm236 346h-472c-11.046 0-20-8.954-20-20v-472c0-11.046 8.954-20 20-20h472c11.046 0 20 8.954 20 20v472c0 11.046-8.954 20-20 20zm-452-40h432v-432h-432zm372-392c-11.046 0-20 8.954-20 20 0 11.046 8.954 20 20 20 11.046 0 20-8.954 20-20 0-11.046-8.954-20-20-20z" fill="url(#SVGID_1_)"/></svg>