<svg id="Layer_1" enable-background="new 0 0 511.503 511.503" height="512" viewBox="0 0 511.503 511.503" width="512" xmlns="http://www.w3.org/2000/svg" xmlns:xlink="http://www.w3.org/1999/xlink"><linearGradient id="SVGID_1_" gradientUnits="userSpaceOnUse" x1="0" x2="511.503" y1="255.752" y2="255.752"><stop offset="0" stop-color="#9dd6fc"/><stop offset="1" stop-color="#d17ff7"/></linearGradient><path d="m437.02 74.483c-95.292-99.313-266.75-99.309-362.039 0-48.352 48.353-74.981 112.64-74.981 181.02v236c0 11.046 8.954 20 20 20h236c68.38 0 132.667-26.629 181.02-74.98 99.313-95.292 99.309-266.751 0-362.04zm-181.02 397.02h-216v-216c0-119.103 96.897-216 216-216 286.567 11.868 286.455 420.187 0 432zm139.984-286.329-26.854-15.473c-34.836-74.685-146.037-50.907-147.13 31.802v12.861l-77.863-49.718c-9.294-5.934-21.638-3.227-27.595 6.053-15.076 23.487-20.088 51.428-14.11 78.675 5.29 24.118 18.626 45.135 37.935 60.085l-25.227 24.249c-7.96 7.352-8.145 20.883-.392 28.451 94.736 90.878 258.351 41.275 261.252-98.656v-32.156l19.984-11.515c13.277-7.501 13.273-27.16 0-34.658zm-253.916 25.61 103.583 66.141c-21.082 17.174-51.713 19.801-75.856 4.384-14.554-9.293-24.602-23.678-28.292-40.505-2.212-10.081-1.982-20.316.565-30.02zm193.932 9.004v43.715c-2.6 94.028-102.402 132.327-176.854 83.387l19.442-18.688c42.791 10.906 89.266-5.982 114.243-44.824 2.87-4.471 3.843-9.899 2.704-15.089-1.138-5.189-4.294-9.713-8.771-12.571l-24.768-15.815c.003-.133.004-.266.004-.4v-38c.745-41.869 58.292-51.15 72.114-11.659 1.545 4.656 4.747 8.582 8.998 11.03l2.826 1.629c-6.151 3.58-9.938 10.163-9.938 17.285z" fill="url(#SVGID_1_)"/></svg>