<svg id="Layer_1" enable-background="new 0 0 512.004 512.004" height="512" viewBox="0 0 512.004 512.004" width="512" xmlns="http://www.w3.org/2000/svg" xmlns:xlink="http://www.w3.org/1999/xlink"><linearGradient id="SVGID_1_" gradientUnits="userSpaceOnUse" x1=".002" x2="512.002" y1="256.002" y2="256.002"><stop offset="0" stop-color="#9dd6fc"/><stop offset="1" stop-color="#d17ff7"/></linearGradient><path d="m437.022 74.985c-160.893-160.553-436.805-46.156-437.02 181.019v236c0 11.046 8.954 20 20 20h236c227.297-.24 341.505-276.229 181.02-437.019zm-181.02 397.019h-216v-216c0-119.103 96.897-216 216-216 286.567 11.869 286.456 420.187 0 432zm77.253-216.514c-7.817-7.796-20.474-7.785-28.276.028l-13.104 13.121c-6.256-3.849-15.225-10.396-26.037-21.182-10.938-10.911-17.548-20.056-21.406-26.42l12.95-12.969c7.737-7.748 7.805-20.277.153-28.109l-69.306-70.933c-3.732-3.819-8.837-5.988-14.177-6.022h-.128c-5.294 0-10.375 2.1-14.125 5.842l-49.923 49.807c-3.459 3.45-5.535 8.048-5.836 12.924-5.25 94.081 124.701 237.018 231.626 237.27 1.762.002 12.471-2.478 15.878-5.877l50.584-50.466c7.77-7.45 7.768-20.869-.001-28.318zm-3.822 113.036c-6.262-.605-16.561-2.283-29.703-6.859-20.754-7.228-53.031-23.36-88.931-59.171-44.135-45.576-61.25-82.025-66.505-121.678l29.449-29.381 41.376 42.348-8.942 8.955c-5.04 5.048-7.011 12.397-5.171 19.289 1.048 3.927 7.738 24.974 36.584 53.748 28.824 28.753 49.407 35.328 53.241 36.354 6.903 1.846 14.271-.13 19.323-5.188l9.005-9.017 40.524 40.421z" fill="url(#SVGID_1_)"/></svg>